<svg width="32" height="32" viewBox="0 0 32 32" fill="none" xmlns="http://www.w3.org/2000/svg">
    <g filter="url(#filter0_d_1124_4414)">
        <path fill-rule="evenodd" clip-rule="evenodd"
              d="M25.8541 23.4603L25.8463 23.4689C24.6382 24.7864 23.2884 25.4615 22.3688 25.7958C19.8018 26.7291 17.2094 26.6913 14.6641 25.6836C12.0694 24.6564 9.74772 22.5295 8.60499 20.1326C8.09582 19.0649 7.82274 17.9415 7.79331 16.7934C7.78708 16.5554 7.77811 16.2796 7.77646 16.2275L7.77581 16.1769L7.77548 16.1539L7.77537 16.147L7.77504 16.1226C7.77471 16.1005 7.77439 16.0785 7.77439 16.0563L7.77428 16.0477C7.77439 15.9876 7.77526 15.9278 7.77668 15.8682C7.81596 14.2252 8.48781 12.648 9.6684 11.427C10.1982 10.879 10.8191 10.4518 11.5134 10.1574C12.2072 9.86321 12.9681 9.70585 13.7771 9.68877C13.4987 9.90318 13.2349 10.1387 12.9872 10.395C11.5707 11.8598 10.7907 13.8725 10.7907 16.0621C10.7907 18.2516 11.5707 20.2643 12.9872 21.7292C13.8021 22.5722 14.7773 23.1877 15.8852 23.5585C16.6719 23.8219 17.5192 23.9553 18.4033 23.9553C19.888 23.9553 22.028 23.5702 23.7926 21.7356C24.3941 21.1105 24.8799 20.3865 25.2419 19.5788H28.1495C27.6692 21.0404 26.8859 22.3683 25.8541 23.4603ZM6.5045 23.4575C4.62099 21.532 3.58372 18.9019 3.58372 16.0521C3.58372 13.1945 4.62394 10.5448 6.51292 8.59139C8.4228 6.61607 11.0552 5.52837 13.9252 5.52837C14.6406 5.52837 15.3489 5.59566 16.0302 5.72866H16.0304C19.6614 6.43719 22.5159 9.00715 23.6718 12.5354H20.7644C20.4023 11.7276 19.9162 11.004 19.3147 10.3786C18.5077 9.53966 17.5405 8.92657 16.44 8.55658C15.6551 8.2926 14.809 8.15886 13.9252 8.15886C12.8397 8.15886 11.8136 8.36062 10.8752 8.75856C9.98269 9.13708 9.18644 9.68425 8.50901 10.385C8.34151 10.5583 8.18287 10.7376 8.03233 10.922C7.07636 11.9383 6.46533 13.2765 6.26435 14.9432C6.22366 15.2372 6.19926 15.5341 6.19204 15.8329L6.1974 15.833L6.19204 15.8329C6.19029 15.9057 6.1893 15.9787 6.1893 16.0521L6.18941 16.062H6.1893C6.1893 16.0859 6.18963 16.1097 6.19007 16.1334V16.1372C6.19018 16.1393 6.19018 16.1412 6.19018 16.1434L6.1904 16.1621L6.19051 16.1701L6.19062 16.1731V16.1749L6.19094 16.2012C6.19094 16.3847 6.19652 16.5682 6.20659 16.7516C6.20736 16.7784 6.20812 16.805 6.20878 16.8311C6.24357 18.1879 6.56522 19.5134 7.16475 20.7708C8.246 23.0385 10.249 25.0923 12.5845 26.3936C10.232 26.1153 8.10837 25.0971 6.5045 23.4575ZM24.9537 7.75536C26.4961 8.99936 27.5661 10.6388 28.0827 12.5354H25.3242C24.4819 9.57744 22.6124 7.15999 20.1048 5.66297C21.9218 5.93382 23.575 6.64341 24.9537 7.75536ZM19.3146 21.7257C19.9162 21.1004 20.4022 20.3767 20.7644 19.5689H23.4811C23.241 19.9802 22.9568 20.3574 22.6304 20.6966C21.3061 22.0735 19.698 22.403 18.537 22.4257C18.81 22.2135 19.0697 21.9803 19.3146 21.7257ZM29.9925 18.0406H25.6856H19.6656L19.478 18.5485C19.1761 19.3666 18.73 20.0859 18.1523 20.6865C17.5783 21.283 16.9048 21.7307 16.1474 22.0209C15.3917 21.7269 14.7195 21.2794 14.1466 20.687C13.0048 19.5061 12.3758 17.8635 12.3758 16.0619C12.3758 14.2603 13.0048 12.6177 14.1466 11.4367C14.6765 10.8888 15.2973 10.4615 15.9916 10.1671C16.0515 10.1416 16.1135 10.1174 16.1757 10.0937C16.9233 10.3861 17.5873 10.8302 18.1523 11.4174C18.73 12.0182 19.1761 12.7375 19.478 13.5554L19.6656 14.0634H24.6991H24.7052H25.6951H30C30 11.0613 28.0138 8.23087 25.9708 6.58314C23.8834 4.89975 21.2667 4.00991 18.4032 4.00991C17.6582 4.00991 16.9145 4.0753 16.1898 4.20261C15.453 4.06877 14.6921 4 13.9251 4C10.6106 4 7.5664 5.26045 5.35325 7.54933C3.19 9.78653 1.99847 12.8062 1.99847 16.052C1.99847 19.2931 3.18923 22.2954 5.35118 24.5056C7.5548 26.7586 10.596 27.9995 13.9145 27.9995C14.6697 27.9995 15.783 27.9992 16.6167 27.8228C17.2952 27.9407 17.9753 28 18.6561 28C20.0805 28 21.5076 27.7418 22.9281 27.2254C24.0136 26.8308 25.6048 26.0358 27.026 24.4892C27.0265 24.4886 27.0269 24.4881 27.0275 24.4876C27.0296 24.4853 27.0318 24.4829 27.0338 24.4807V24.4806C28.4618 22.9661 29.8287 20.7419 29.9925 18.0406Z"
              fill="url(#paint0_linear_1124_4414)"/>
    </g>
    <mask id="mask0_1124_4414" style="mask-type:luminance" maskUnits="userSpaceOnUse" x="1" y="4" width="29"
          height="24">
        <path fill-rule="evenodd" clip-rule="evenodd"
              d="M25.8541 23.4603L25.8463 23.4689C24.6382 24.7864 23.2884 25.4615 22.3688 25.7958C19.8018 26.7291 17.2094 26.6913 14.6641 25.6836C12.0694 24.6564 9.74772 22.5295 8.60499 20.1326C8.09582 19.0649 7.82274 17.9415 7.79331 16.7934C7.78708 16.5554 7.77811 16.2796 7.77646 16.2275L7.77581 16.1769L7.77548 16.1539L7.77537 16.147L7.77504 16.1226C7.77471 16.1005 7.77439 16.0785 7.77439 16.0563L7.77428 16.0477C7.77439 15.9876 7.77526 15.9278 7.77668 15.8682C7.81596 14.2252 8.48781 12.648 9.6684 11.427C10.1982 10.879 10.8191 10.4518 11.5134 10.1574C12.2072 9.86321 12.9681 9.70585 13.7771 9.68877C13.4987 9.90318 13.2349 10.1387 12.9872 10.395C11.5707 11.8598 10.7907 13.8725 10.7907 16.0621C10.7907 18.2516 11.5707 20.2643 12.9872 21.7292C13.8021 22.5722 14.7773 23.1877 15.8852 23.5585C16.6719 23.8219 17.5192 23.9553 18.4033 23.9553C19.888 23.9553 22.028 23.5702 23.7926 21.7356C24.3941 21.1105 24.8799 20.3865 25.2419 19.5788H28.1495C27.6692 21.0404 26.8859 22.3683 25.8541 23.4603ZM6.5045 23.4575C4.62099 21.532 3.58372 18.9019 3.58372 16.0521C3.58372 13.1945 4.62394 10.5448 6.51292 8.59139C8.4228 6.61607 11.0552 5.52837 13.9252 5.52837C14.6406 5.52837 15.3489 5.59566 16.0302 5.72866H16.0304C19.6614 6.43719 22.5159 9.00715 23.6718 12.5354H20.7644C20.4023 11.7276 19.9162 11.004 19.3147 10.3786C18.5077 9.53966 17.5405 8.92657 16.44 8.55658C15.6551 8.2926 14.809 8.15886 13.9252 8.15886C12.8397 8.15886 11.8136 8.36062 10.8752 8.75856C9.98269 9.13708 9.18644 9.68425 8.50901 10.385C8.34151 10.5583 8.18287 10.7376 8.03233 10.922C7.07636 11.9383 6.46533 13.2765 6.26435 14.9432C6.22366 15.2372 6.19926 15.5341 6.19204 15.8329L6.1974 15.833L6.19204 15.8329C6.19029 15.9057 6.1893 15.9787 6.1893 16.0521L6.18941 16.062H6.1893C6.1893 16.0859 6.18963 16.1097 6.19007 16.1334V16.1372C6.19018 16.1393 6.19018 16.1412 6.19018 16.1434L6.1904 16.1621L6.19051 16.1701L6.19062 16.1731V16.1749L6.19094 16.2012C6.19094 16.3847 6.19652 16.5682 6.20659 16.7516C6.20736 16.7784 6.20812 16.805 6.20878 16.8311C6.24357 18.1879 6.56522 19.5134 7.16475 20.7708C8.246 23.0385 10.249 25.0923 12.5845 26.3936C10.232 26.1153 8.10837 25.0971 6.5045 23.4575ZM24.9537 7.75536C26.4961 8.99936 27.5661 10.6388 28.0827 12.5354H25.3242C24.4819 9.57744 22.6124 7.15999 20.1048 5.66297C21.9218 5.93382 23.575 6.64341 24.9537 7.75536ZM19.3146 21.7257C19.9162 21.1004 20.4022 20.3767 20.7644 19.5689H23.4811C23.241 19.9802 22.9568 20.3574 22.6304 20.6966C21.3061 22.0735 19.698 22.403 18.537 22.4257C18.81 22.2135 19.0697 21.9803 19.3146 21.7257ZM29.9925 18.0406H25.6856H19.6656L19.478 18.5485C19.1761 19.3666 18.73 20.0859 18.1523 20.6865C17.5783 21.283 16.9048 21.7307 16.1474 22.0209C15.3917 21.7269 14.7195 21.2794 14.1466 20.687C13.0048 19.5061 12.3758 17.8635 12.3758 16.0619C12.3758 14.2603 13.0048 12.6177 14.1466 11.4367C14.6765 10.8888 15.2973 10.4615 15.9916 10.1671C16.0515 10.1416 16.1135 10.1174 16.1757 10.0937C16.9233 10.3861 17.5873 10.8302 18.1523 11.4174C18.73 12.0182 19.1761 12.7375 19.478 13.5554L19.6656 14.0634H24.6991H24.7052H25.6951H30C30 11.0613 28.0138 8.23087 25.9708 6.58314C23.8834 4.89975 21.2667 4.00991 18.4032 4.00991C17.6582 4.00991 16.9145 4.0753 16.1898 4.20261C15.453 4.06877 14.6921 4 13.9251 4C10.6106 4 7.5664 5.26045 5.35325 7.54933C3.19 9.78653 1.99847 12.8062 1.99847 16.052C1.99847 19.2931 3.18923 22.2954 5.35118 24.5056C7.5548 26.7586 10.596 27.9995 13.9145 27.9995C14.6697 27.9995 15.783 27.9992 16.6167 27.8228C17.2952 27.9407 17.9753 28 18.6561 28C20.0805 28 21.5076 27.7418 22.9281 27.2254C24.0136 26.8308 25.6048 26.0358 27.026 24.4892C27.0265 24.4886 27.0269 24.4881 27.0275 24.4876C27.0296 24.4853 27.0318 24.4829 27.0338 24.4807V24.4806C28.4618 22.9661 29.8287 20.7419 29.9925 18.0406Z"
              fill="white"/>
    </mask>
    <g mask="url(#mask0_1124_4414)">
        <path opacity="0.6" fill-rule="evenodd" clip-rule="evenodd"
              d="M2.76447 20.7698V28.6271H17.4644V27.9483C12.1732 27.3615 8.28232 23.5852 7.14057 20.7698H2.76447Z"
              fill="url(#paint1_linear_1124_4414)"/>
        <path opacity="0.601618" fill-rule="evenodd" clip-rule="evenodd"
              d="M10.7508 14.0751H16.1668V11.9445C16.5877 12.1749 16.9689 12.4468 17.3165 12.7253C18.1299 12.2847 18.9014 12.2847 18.1903 11.4883C17.4792 10.692 16.2757 9.95905 14.943 9.73698C13.6455 9.5208 12.007 9.91164 11.3054 10.2923C10.9998 10.4579 11.0302 11.0402 11.4294 11.5758L10.7508 14.0751Z"
              fill="url(#paint2_linear_1124_4414)"/>
    </g>
    <defs>
        <filter id="filter0_d_1124_4414" x="0.82193" y="2.93551" width="30.2426" height="26.241"
                filterUnits="userSpaceOnUse" color-interpolation-filters="sRGB">
            <feFlood flood-opacity="0" result="BackgroundImageFix"/>
            <feColorMatrix in="SourceAlpha" type="matrix" values="0 0 0 0 0 0 0 0 0 0 0 0 0 0 0 0 0 0 127 0"
                           result="hardAlpha"/>
            <feOffset dx="-0.0560259" dy="0.0560259"/>
            <feGaussianBlur stdDeviation="0.560259"/>
            <feColorMatrix type="matrix" values="0 0 0 0 0 0 0 0 0 0 0 0 0 0 0 0 0 0 0.0840693 0"/>
            <feBlend mode="normal" in2="BackgroundImageFix" result="effect1_dropShadow_1124_4414"/>
            <feBlend mode="normal" in="SourceGraphic" in2="effect1_dropShadow_1124_4414" result="shape"/>
        </filter>
        <linearGradient id="paint0_linear_1124_4414" x1="38.2482" y1="17.8688" x2="21.1271" y2="-6.95425"
                        gradientUnits="userSpaceOnUse">
            <stop stop-color="#B9775D"/>
            <stop offset="0.218329" stop-color="#E89077"/>
            <stop offset="0.780659" stop-color="#FDBDA4"/>
            <stop offset="1" stop-color="#B57359"/>
        </linearGradient>
        <linearGradient id="paint1_linear_1124_4414" x1="2.76447" y1="28.6271" x2="17.4644" y2="28.6271"
                        gradientUnits="userSpaceOnUse">
            <stop stop-color="#30353B" stop-opacity="0.01"/>
            <stop offset="1" stop-color="#30353B" stop-opacity="0.6"/>
        </linearGradient>
        <linearGradient id="paint2_linear_1124_4414" x1="18.4706" y1="14.0751" x2="18.4706" y2="9.67517"
                        gradientUnits="userSpaceOnUse">
            <stop stop-color="#30353B" stop-opacity="0.01"/>
            <stop offset="1" stop-color="#30353B" stop-opacity="0.6"/>
        </linearGradient>
    </defs>
</svg>
